<svg width="485" height="105" viewBox="0 0 485 105" fill="none" xmlns="http://www.w3.org/2000/svg">
<path d="M30.2671 60.5021C30.2671 62.9468 29.7235 65.1085 28.6365 66.9872C27.5495 68.866 25.8057 70.3373 23.4052 71.4011C21.0273 72.465 17.8907 72.9969 13.9955 72.9969C11.2553 72.9969 8.79817 72.8498 6.6241 72.5556C4.47269 72.2613 2.2873 71.6954 0.0679395 70.8579V60.2305C2.49112 61.3396 4.95959 62.1432 7.47335 62.6412C9.98711 63.1165 11.9687 63.3542 13.4181 63.3542C14.9127 63.3542 15.9998 63.1958 16.6792 62.8789C17.3812 62.5393 17.7322 62.0413 17.7322 61.3849C17.7322 60.819 17.4944 60.3437 17.0189 59.9589C16.5659 59.5514 15.7393 59.0874 14.5391 58.5668C13.3614 58.0462 11.6969 57.3445 9.54551 56.4617C7.41673 55.5789 5.63898 54.6169 4.21225 53.5756C2.80817 52.5344 1.7551 51.2895 1.05306 49.8408C0.351021 48.3921 0 46.6152 0 44.5101C0 40.7526 1.44938 37.9232 4.34813 36.0218C7.24688 34.1204 11.0855 33.1697 15.8639 33.1697C18.4003 33.1697 20.7895 33.4526 23.0315 34.0185C25.2735 34.5618 27.5948 35.3653 29.9953 36.4292L26.3605 44.9854C24.4582 44.1253 22.5333 43.4349 20.5857 42.9143C18.6381 42.3937 17.0868 42.1334 15.9318 42.1334C14.8901 42.1334 14.0861 42.2692 13.52 42.5408C12.9538 42.8124 12.6707 43.2086 12.6707 43.7292C12.6707 44.2045 12.8632 44.6233 13.2482 44.9854C13.6558 45.3476 14.4145 45.7664 15.5242 46.2417C16.6339 46.7171 18.2531 47.3848 20.3819 48.245C22.6239 49.1504 24.4696 50.1237 25.9189 51.165C27.391 52.1836 28.478 53.4285 29.18 54.8998C29.9047 56.3711 30.2671 58.2386 30.2671 60.5021Z" fill="#61BD45"/>
<path d="M53.675 33.1697C58.544 33.1697 62.3486 34.3807 65.0888 36.8027C67.829 39.2021 69.1991 42.6314 69.1991 47.0906V72.3179H59.9933L57.4456 67.2249H57.1738C56.0868 68.583 54.9658 69.6922 53.8108 70.5523C52.6785 71.3898 51.3763 72.001 49.9043 72.3858C48.4323 72.7932 46.6319 72.9969 44.5031 72.9969C42.2838 72.9969 40.2909 72.5442 38.5244 71.6388C36.758 70.7334 35.3652 69.3639 34.3462 67.5305C33.3271 65.697 32.8175 63.3768 32.8175 60.57C32.8175 56.4504 34.2442 53.3946 37.0977 51.4026C39.9512 49.4107 44.0842 48.2902 49.4967 48.0412L55.917 47.8375V47.2943C55.917 45.574 55.4867 44.3517 54.6261 43.6273C53.7882 42.903 52.6559 42.5408 51.2291 42.5408C49.7118 42.5408 48.0133 42.8124 46.1337 43.3557C44.2766 43.8763 42.4083 44.5554 40.5287 45.3929L36.6901 36.6329C38.9094 35.5012 41.4232 34.641 44.2314 34.0525C47.0395 33.464 50.1874 33.1697 53.675 33.1697ZM55.9849 55.1375L52.9276 55.2733C50.4818 55.3638 48.7607 55.7939 47.7642 56.5635C46.7904 57.3105 46.3035 58.3857 46.3035 59.7891C46.3035 61.102 46.6545 62.0753 47.3566 62.7091C48.0586 63.3202 48.9871 63.6258 50.1421 63.6258C51.75 63.6258 53.1201 63.1165 54.2524 62.0979C55.4074 61.0793 55.9849 59.7551 55.9849 58.1254V55.1375Z" fill="#61BD45"/>
<path d="M85.5413 72.3179L70.8664 33.8488H84.726L91.2482 56.5975C91.3162 56.8012 91.4294 57.3218 91.5879 58.1593C91.7691 58.9969 91.8597 59.7778 91.8597 60.5021H92.0975C92.0975 59.7325 92.1767 58.9969 92.3353 58.2952C92.4938 57.5935 92.6183 57.0502 92.7089 56.6654L99.5369 33.8488H113.363L98.6876 72.3179H85.5413Z" fill="#61BD45"/>
<path d="M132.524 33.1697C136.261 33.1697 139.488 33.8261 142.206 35.139C144.923 36.4292 147.018 38.3759 148.49 40.979C149.962 43.582 150.698 46.8416 150.698 50.7575V56.6654H126.953C127.066 58.68 127.814 60.3324 129.195 61.6226C130.599 62.9128 132.66 63.5579 135.378 63.5579C137.778 63.5579 139.975 63.3202 141.968 62.8449C143.983 62.3696 146.056 61.6339 148.184 60.6379V70.1788C146.327 71.1522 144.3 71.8652 142.104 72.3179C139.907 72.7706 137.133 72.9969 133.781 72.9969C129.909 72.9969 126.444 72.3066 123.386 70.9258C120.329 69.545 117.917 67.406 116.151 64.5086C114.407 61.6113 113.535 57.8877 113.535 53.338C113.535 48.7203 114.328 44.9289 115.913 41.9636C117.498 38.9757 119.718 36.7687 122.571 35.3427C125.425 33.894 128.742 33.1697 132.524 33.1697ZM133 42.2013C131.437 42.2013 130.124 42.6993 129.059 43.6952C128.018 44.6686 127.406 46.2078 127.225 48.3129H138.639C138.616 47.1811 138.39 46.1512 137.959 45.2231C137.529 44.2951 136.895 43.5594 136.057 43.0162C135.242 42.4729 134.223 42.2013 133 42.2013Z" fill="#61BD45"/>
<path d="M303.452 33.1697C307.71 33.1697 311.05 34.8787 313.473 38.2966C315.896 41.692 317.108 46.5926 317.108 52.9984C317.108 57.3671 316.496 61.0454 315.273 64.0333C314.051 66.9985 312.375 69.2394 310.246 70.756C308.14 72.25 305.739 72.9969 303.044 72.9969C301.233 72.9969 299.693 72.7706 298.424 72.3179C297.179 71.8652 296.137 71.2993 295.299 70.6202C294.484 69.9411 293.793 69.2508 293.227 68.5491H292.819C292.933 69.4318 293.023 70.3825 293.091 71.4011C293.182 72.4197 293.227 73.6081 293.227 74.9662V89.0229H279.945V33.8488H290.747L292.616 38.738H293.227C293.861 37.7421 294.631 36.8253 295.537 35.9878C296.443 35.1277 297.541 34.4486 298.832 33.9506C300.146 33.43 301.686 33.1697 303.452 33.1697ZM298.458 43.5934C297.168 43.5934 296.148 43.8989 295.401 44.5101C294.654 45.1213 294.11 46.0493 293.771 47.2943C293.454 48.5166 293.272 50.0445 293.227 51.878V52.9305C293.227 54.9677 293.386 56.688 293.703 58.0914C294.02 59.4722 294.563 60.5248 295.333 61.2491C296.103 61.9508 297.168 62.3016 298.526 62.3016C299.636 62.3016 300.565 61.9847 301.312 61.351C302.059 60.7172 302.625 59.7099 303.01 58.3291C303.395 56.9483 303.588 55.1262 303.588 52.8626C303.588 49.4899 303.146 47.1019 302.263 45.6985C301.402 44.2951 300.134 43.5934 298.458 43.5934Z" fill="#61BD45"/>
<path d="M358.69 52.9984C358.69 56.2127 358.248 59.0648 357.365 61.5547C356.481 64.0446 355.202 66.1384 353.526 67.836C351.85 69.5337 349.823 70.8239 347.446 71.7067C345.068 72.5669 342.384 72.9969 339.395 72.9969C336.609 72.9969 334.05 72.5669 331.718 71.7067C329.408 70.8239 327.392 69.5337 325.671 67.836C323.95 66.1384 322.614 64.0446 321.662 61.5547C320.734 59.0648 320.27 56.2127 320.27 52.9984C320.27 48.743 321.04 45.1439 322.58 42.2013C324.142 39.2587 326.362 37.0177 329.238 35.4785C332.136 33.9393 335.59 33.1697 339.599 33.1697C343.29 33.1697 346.574 33.9393 349.45 35.4785C352.326 37.0177 354.579 39.2587 356.21 42.2013C357.863 45.1439 358.69 48.743 358.69 52.9984ZM333.756 52.9984C333.756 55.1941 333.948 57.0502 334.333 58.5668C334.718 60.0607 335.33 61.2038 336.168 61.9961C337.028 62.7657 338.149 63.1505 339.531 63.1505C340.912 63.1505 342.01 62.7657 342.826 61.9961C343.641 61.2038 344.23 60.0607 344.592 58.5668C344.977 57.0502 345.17 55.1941 345.17 52.9984C345.17 50.8028 344.977 48.9693 344.592 47.498C344.23 46.0267 343.63 44.9175 342.792 44.1706C341.976 43.4236 340.867 43.0501 339.463 43.0501C337.447 43.0501 335.986 43.8876 335.081 45.5627C334.197 47.2377 333.756 49.7163 333.756 52.9984Z" fill="#61BD45"/>
<path d="M376.866 33.8488V72.3179H363.584V33.8488H376.866ZM370.276 18.366C372.178 18.366 373.831 18.7622 375.236 19.5544C376.662 20.3466 377.376 21.9198 377.376 24.2739C377.376 26.5601 376.662 28.1106 375.236 28.9255C373.831 29.7178 372.178 30.1139 370.276 30.1139C368.328 30.1139 366.664 29.7178 365.282 28.9255C363.924 28.1106 363.244 26.5601 363.244 24.2739C363.244 21.9198 363.924 20.3466 365.282 19.5544C366.664 18.7622 368.328 18.366 370.276 18.366Z" fill="#61BD45"/>
<path d="M407.442 33.1697C411.405 33.1697 414.643 34.2901 417.157 36.5311C419.671 38.772 420.928 42.3597 420.928 47.2943V72.3179H407.645V51.3347C407.645 48.7769 407.272 46.8529 406.524 45.5627C405.8 44.2498 404.622 43.5934 402.992 43.5934C400.478 43.5934 398.791 44.6233 397.93 46.6831C397.069 48.7203 396.639 51.6516 396.639 55.477V72.3179H383.357V33.8488H393.378L395.178 38.9418H395.688C396.503 37.7194 397.477 36.6782 398.609 35.8181C399.742 34.9579 401.044 34.3015 402.516 33.8488C403.988 33.396 405.63 33.1697 407.442 33.1697Z" fill="#61BD45"/>
<path d="M446.034 62.5054C447.234 62.5054 448.333 62.3809 449.329 62.1319C450.325 61.8829 451.367 61.566 452.454 61.1812V70.8579C451.005 71.4917 449.465 72.001 447.834 72.3858C446.226 72.7932 444.166 72.9969 441.652 72.9969C439.161 72.9969 436.964 72.6121 435.062 71.8425C433.159 71.0503 431.676 69.6922 430.612 67.7681C429.57 65.8215 429.049 63.1165 429.049 59.6533V43.7971H424.395V38.3985L430.306 34.2222L433.737 26.1413H442.433V33.8488H451.877V43.7971H442.433V58.7705C442.433 60.0155 442.75 60.9548 443.384 61.5886C444.018 62.1998 444.902 62.5054 446.034 62.5054Z" fill="#61BD45"/>
<path d="M485 60.5021C485 62.9468 484.456 65.1085 483.369 66.9872C482.282 68.866 480.539 70.3373 478.138 71.4011C475.76 72.465 472.624 72.9969 468.728 72.9969C465.988 72.9969 463.531 72.8498 461.357 72.5556C459.206 72.2613 457.02 71.6954 454.801 70.8579V60.2305C457.224 61.3396 459.693 62.1432 462.206 62.6412C464.72 63.1165 466.702 63.3542 468.151 63.3542C469.646 63.3542 470.733 63.1958 471.412 62.8789C472.114 62.5393 472.465 62.0413 472.465 61.3849C472.465 60.819 472.227 60.3437 471.752 59.9589C471.299 59.5514 470.472 59.0874 469.272 58.5668C468.094 58.0462 466.43 57.3445 464.278 56.4617C462.15 55.5789 460.372 54.6169 458.945 53.5756C457.541 52.5344 456.488 51.2895 455.786 49.8408C455.084 48.3921 454.733 46.6152 454.733 44.5101C454.733 40.7526 456.182 37.9232 459.081 36.0218C461.98 34.1204 465.818 33.1697 470.597 33.1697C473.133 33.1697 475.522 33.4526 477.764 34.0185C480.006 34.5618 482.328 35.3653 484.728 36.4292L481.093 44.9854C479.191 44.1253 477.266 43.4349 475.319 42.9143C473.371 42.3937 471.82 42.1334 470.665 42.1334C469.623 42.1334 468.819 42.2692 468.253 42.5408C467.687 42.8124 467.404 43.2086 467.404 43.7292C467.404 44.2045 467.596 44.6233 467.981 44.9854C468.389 45.3476 469.147 45.7664 470.257 46.2417C471.367 46.7171 472.986 47.3848 475.115 48.245C477.357 49.1504 479.202 50.1237 480.652 51.165C482.124 52.1836 483.211 53.4285 483.913 54.8998C484.638 56.3711 485 58.2386 485 60.5021Z" fill="#61BD45"/>
<path d="M267.706 52.5C267.706 81.4949 244.19 105 215.181 105C186.172 105 162.655 81.4949 162.655 52.5C162.655 23.5051 186.172 0 215.181 0C244.19 0 267.706 23.5051 267.706 52.5Z" fill="#61BD45"/>
<path d="M212.428 52.9984C212.428 56.2127 211.986 59.0648 211.103 61.5547C210.22 64.0446 208.94 66.1384 207.265 67.836C205.589 69.5337 203.562 70.8239 201.184 71.7067C198.806 72.5669 196.122 72.9969 193.133 72.9969C190.348 72.9969 187.789 72.5669 185.456 71.7067C183.146 70.8239 181.13 69.5337 179.409 67.836C177.688 66.1384 176.352 64.0446 175.401 61.5547C174.472 59.0648 174.008 56.2127 174.008 52.9984C174.008 48.743 174.778 45.1439 176.318 42.2013C177.881 39.2587 180.1 37.0177 182.976 35.4785C185.875 33.9393 189.328 33.1697 193.337 33.1697C197.028 33.1697 200.312 33.9393 203.188 35.4785C206.064 37.0177 208.318 39.2587 209.948 42.2013C211.601 45.1439 212.428 48.743 212.428 52.9984ZM187.494 52.9984C187.494 55.1941 187.687 57.0502 188.072 58.5668C188.457 60.0607 189.068 61.2038 189.906 61.9961C190.767 62.7657 191.888 63.1505 193.269 63.1505C194.65 63.1505 195.749 62.7657 196.564 61.9961C197.379 61.2038 197.968 60.0607 198.33 58.5668C198.715 57.0502 198.908 55.1941 198.908 52.9984C198.908 50.8028 198.715 48.9693 198.33 47.498C197.968 46.0267 197.368 44.9175 196.53 44.1706C195.715 43.4236 194.605 43.0501 193.201 43.0501C191.185 43.0501 189.725 43.8876 188.819 45.5627C187.936 47.2377 187.494 49.7163 187.494 52.9984Z" fill="white"/>
<path d="M241.339 33.1697C245.302 33.1697 248.54 34.2901 251.054 36.5311C253.568 38.772 254.825 42.3597 254.825 47.2943V72.3179H241.543V51.3347C241.543 48.7769 241.169 46.8529 240.422 45.5627C239.697 44.2498 238.519 43.5934 236.889 43.5934C234.375 43.5934 232.688 44.6233 231.827 46.6831C230.967 48.7203 230.537 51.6516 230.537 55.477V72.3179H217.254V33.8488H227.275L229.076 38.9418H229.585C230.401 37.7194 231.374 36.6782 232.507 35.8181C233.639 34.9579 234.941 34.3015 236.413 33.8488C237.885 33.396 239.527 33.1697 241.339 33.1697Z" fill="white"/>
</svg>
